<mxfile host="65bd71144e">
    <diagram id="shglgehnR1NxPC13Prom" name="PÃ¡gina-1">
        <mxGraphModel dx="576" dy="461" grid="1" gridSize="10" guides="1" tooltips="1" connect="1" arrows="1" fold="1" page="1" pageScale="1" pageWidth="827" pageHeight="1169" math="0" shadow="0">
            <root>
                <mxCell id="0"/>
                <mxCell id="1" parent="0"/>
                <mxCell id="4" style="edgeStyle=none;html=1;" edge="1" parent="1" source="3">
                    <mxGeometry relative="1" as="geometry">
                        <mxPoint x="280" y="130" as="targetPoint"/>
                    </mxGeometry>
                </mxCell>
                <mxCell id="3" value="INICIO" style="rounded=1;whiteSpace=wrap;html=1;fillColor=#a20025;fontColor=#ffffff;strokeColor=#6F0000;" vertex="1" parent="1">
                    <mxGeometry x="220" y="20" width="120" height="60" as="geometry"/>
                </mxCell>
                <mxCell id="6" style="edgeStyle=none;html=1;" edge="1" parent="1" source="5">
                    <mxGeometry relative="1" as="geometry">
                        <mxPoint x="280" y="250" as="targetPoint"/>
                    </mxGeometry>
                </mxCell>
                <mxCell id="5" value="num" style="shape=parallelogram;perimeter=parallelogramPerimeter;whiteSpace=wrap;html=1;fixedSize=1;fillColor=#f8cecc;strokeColor=#b85450;gradientColor=#ea6b66;" vertex="1" parent="1">
                    <mxGeometry x="220" y="130" width="120" height="60" as="geometry"/>
                </mxCell>
                <mxCell id="12" style="edgeStyle=none;html=1;" edge="1" parent="1" source="7" target="13">
                    <mxGeometry relative="1" as="geometry">
                        <mxPoint x="460" y="360" as="targetPoint"/>
                        <Array as="points">
                            <mxPoint x="460" y="300"/>
                        </Array>
                    </mxGeometry>
                </mxCell>
                <mxCell id="7" value="num%2=0" style="rhombus;whiteSpace=wrap;html=1;fillColor=#d80073;fontColor=#ffffff;strokeColor=#A50040;" vertex="1" parent="1">
                    <mxGeometry x="220" y="250" width="120" height="100" as="geometry"/>
                </mxCell>
                <mxCell id="20" style="edgeStyle=none;html=1;strokeColor=default;startArrow=none;startFill=0;endArrow=none;endFill=0;" edge="1" parent="1" source="13">
                    <mxGeometry relative="1" as="geometry">
                        <mxPoint x="280" y="550" as="targetPoint"/>
                        <Array as="points">
                            <mxPoint x="460" y="550"/>
                        </Array>
                    </mxGeometry>
                </mxCell>
                <mxCell id="13" value="&quot;Es par.&quot;" style="shape=document;whiteSpace=wrap;html=1;boundedLbl=1;fillColor=#e51400;fontColor=#ffffff;strokeColor=#B20000;" vertex="1" parent="1">
                    <mxGeometry x="400" y="380" width="120" height="50" as="geometry"/>
                </mxCell>
                <mxCell id="14" style="edgeStyle=none;html=1;startArrow=none;startFill=0;exitX=0;exitY=0.5;exitDx=0;exitDy=0;" edge="1" parent="1" source="7">
                    <mxGeometry relative="1" as="geometry">
                        <mxPoint x="80" y="380" as="targetPoint"/>
                        <mxPoint x="110" y="260" as="sourcePoint"/>
                        <Array as="points">
                            <mxPoint x="80" y="300"/>
                            <mxPoint x="80" y="380"/>
                        </Array>
                    </mxGeometry>
                </mxCell>
                <mxCell id="21" style="edgeStyle=none;html=1;strokeColor=default;startArrow=none;startFill=0;endArrow=none;endFill=0;" edge="1" parent="1" source="15">
                    <mxGeometry relative="1" as="geometry">
                        <mxPoint x="300" y="550" as="targetPoint"/>
                        <Array as="points">
                            <mxPoint x="90" y="550"/>
                        </Array>
                    </mxGeometry>
                </mxCell>
                <mxCell id="15" value="&quot;No es par.&quot;" style="shape=document;whiteSpace=wrap;html=1;boundedLbl=1;fillColor=#e51400;fontColor=#ffffff;strokeColor=#B20000;" vertex="1" parent="1">
                    <mxGeometry x="30" y="380" width="120" height="50" as="geometry"/>
                </mxCell>
                <mxCell id="18" style="edgeStyle=none;html=1;startArrow=none;startFill=0;strokeColor=none;" edge="1" parent="1" source="13">
                    <mxGeometry relative="1" as="geometry">
                        <mxPoint x="330" y="500" as="targetPoint"/>
                        <mxPoint x="470" y="420" as="sourcePoint"/>
                        <Array as="points">
                            <mxPoint x="460" y="520"/>
                            <mxPoint x="400" y="520"/>
                            <mxPoint x="360" y="520"/>
                            <mxPoint x="330" y="500"/>
                        </Array>
                    </mxGeometry>
                </mxCell>
                <mxCell id="23" style="edgeStyle=none;html=1;strokeColor=default;startArrow=none;startFill=0;endArrow=classic;endFill=1;entryX=0.5;entryY=0;entryDx=0;entryDy=0;" edge="1" parent="1" target="19">
                    <mxGeometry relative="1" as="geometry">
                        <mxPoint x="280" y="560" as="targetPoint"/>
                        <mxPoint x="280" y="550" as="sourcePoint"/>
                    </mxGeometry>
                </mxCell>
                <mxCell id="19" value="FIN" style="rounded=1;whiteSpace=wrap;html=1;fillColor=#a20025;fontColor=#ffffff;strokeColor=#6F0000;" vertex="1" parent="1">
                    <mxGeometry x="220" y="585" width="120" height="60" as="geometry"/>
                </mxCell>
            </root>
        </mxGraphModel>
    </diagram>
</mxfile>